<svg width="287" height="24" viewBox="0 0 287 24" fill="none" xmlns="http://www.w3.org/2000/svg">
<path d="M0 6.144V1.6H13.12V10.464H29.632V1.6H37.984V24H29.632V15.008H13.12V24H4.768V6.144H0ZM41.1875 6.144V1.6H79.2355V9.856L70.8835 8.704V6.144H54.3395V10.528H67.9395V15.072H54.3395V19.456H70.8835V16.896L79.2355 15.744V24H45.9875V6.144H41.1875ZM94.5938 6.144V1.6H132.61V9.856L124.258 8.704V6.144H107.714V19.456H124.258V16.896L132.61 15.744V24H99.3618V6.144H94.5938ZM138.356 24V0.703999L158.676 6.688L178.964 0.703999V24H167.892V19.456H170.612V8.512L162.836 10.72V24H154.484V10.72L146.708 8.512V19.456H149.428V24H138.356ZM185.356 24V1.6H193.708V14.848L210.252 7.584V1.6H218.604V3.904L223.372 1.824V7.808L218.604 9.888V24H210.252V13.568L193.708 20.832V24H185.356ZM236.188 19.68V13.952L240.956 12.672V1.6H249.308V10.4L265.66 5.984V1.6H274.012V9.472L261.116 12.96L268.668 19.2H274.204V24H263.708L253.18 15.072L249.308 16.128V24H240.956V18.4L236.188 19.68ZM278.038 24V18.816H286.39V24H278.038Z" fill="#E3E5EF"/>
</svg>
