<svg width="42" height="42" viewBox="0 0 42 42" fill="none" xmlns="http://www.w3.org/2000/svg">
<g clip-path="url(#clip0_24_81)">
<path d="M20.7269 10.0801C19.3305 10.0799 17.9478 10.3547 16.6576 10.889C15.3675 11.4233 14.1953 12.2065 13.2079 13.1939C12.2205 14.1812 11.4373 15.3535 10.903 16.6436C10.3687 17.9338 10.0939 19.3165 10.0941 20.7129C10.0939 22.1093 10.3687 23.492 10.903 24.7822C11.4373 26.0723 12.2205 27.2445 13.2079 28.2319C14.1953 29.2193 15.3675 30.0025 16.6576 30.5368C17.9478 31.0711 19.3305 31.3459 20.7269 31.3457C22.1233 31.3459 23.506 31.0711 24.7962 30.5368C26.0863 30.0025 27.2585 29.2193 28.2459 28.2319C29.2333 27.2445 30.0165 26.0723 30.5508 24.7822C31.0851 23.492 31.3599 22.1093 31.3597 20.7129C31.3599 19.3165 31.0851 17.9338 30.5508 16.6436C30.0165 15.3535 29.2333 14.1812 28.2459 13.1939C27.2585 12.2065 26.0863 11.4233 24.7962 10.889C23.506 10.3547 22.1233 10.0799 20.7269 10.0801ZM20.7269 27.6144C19.3624 27.614 18.0286 27.2091 16.8942 26.4508C15.7599 25.6926 14.8758 24.6149 14.3537 23.3542C13.8317 22.0936 13.6952 20.7064 13.9615 19.3681C14.2278 18.0299 14.8849 16.8006 15.8498 15.8358C16.8146 14.8709 18.0439 14.2138 19.3821 13.9475C20.7204 13.6812 22.1076 13.8177 23.3683 14.3397C24.6289 14.8618 25.7066 15.7458 26.4648 16.8802C27.2231 18.0146 27.628 19.3484 27.6284 20.7129C27.6288 21.6193 27.4506 22.517 27.104 23.3545C26.7573 24.192 26.249 24.953 25.608 25.594C24.967 26.2349 24.2061 26.7433 23.3685 27.09C22.531 27.4366 21.6333 27.6148 20.7269 27.6144Z" fill="white"/>
<path d="M29.2635 0.131144C25.451 -0.0467025 16.0078 -0.0380691 12.1919 0.131144C8.83871 0.288271 5.88093 1.09808 3.4964 3.4826C-0.488743 7.46775 0.0206241 12.8377 0.0206241 20.713C0.0206241 28.7731 -0.428309 34.0187 3.4964 37.9434C7.49709 41.9424 12.9447 41.4192 20.7268 41.4192C28.7109 41.4192 31.4667 41.4244 34.2898 40.3314C38.1282 38.8413 41.0255 35.4104 41.3087 29.2479C41.4883 25.4337 41.4779 15.9923 41.3087 12.1764C40.9668 4.90193 37.0628 0.490291 29.2635 0.131144ZM35.2982 35.3068C32.6857 37.9192 29.0614 37.6861 20.6767 37.6861C12.0434 37.6861 8.58144 37.8139 6.05532 35.2809C3.14589 32.3853 3.67252 27.7354 3.67252 20.6854C3.67252 11.1456 2.6935 4.27514 12.2679 3.78477C14.4676 3.70707 15.1151 3.68117 20.6526 3.68117L20.7303 3.73297C29.9317 3.73297 37.1509 2.76949 37.5843 12.3421C37.6827 14.5264 37.7051 15.1825 37.7051 20.7113C37.7034 29.2445 37.8657 32.7272 35.2982 35.3068Z" fill="white"/>
<path d="M31.781 12.1451C33.1532 12.1451 34.2657 11.0327 34.2657 9.66045C34.2657 8.28821 33.1532 7.17578 31.781 7.17578C30.4088 7.17578 29.2963 8.28821 29.2963 9.66045C29.2963 11.0327 30.4088 12.1451 31.781 12.1451Z" fill="white"/>
</g>
<defs>
<clipPath id="clip0_24_81">
<rect width="41.44" height="41.44" fill="white"/>
</clipPath>
</defs>
</svg>
