<svg width="42" height="42" viewBox="0 0 42 42" fill="none" xmlns="http://www.w3.org/2000/svg">
<g clip-path="url(#clip0_24_86)">
<path d="M1.1566 19.3317L11.2904 24.3822C11.4826 24.4777 11.6956 24.5241 11.9101 24.5171C12.1246 24.5102 12.3341 24.4502 12.5198 24.3425L21.5399 19.0986L16.0802 23.9367C15.9429 24.0583 15.8329 24.2077 15.7576 24.375C15.6823 24.5423 15.6434 24.7236 15.6433 24.9071V36.6916C15.6433 37.9348 17.2301 38.458 17.9743 37.4703L22.3549 31.6463L33.188 37.8156C33.3661 37.9169 33.5656 37.9745 33.7702 37.9836C33.9749 37.9928 34.1787 37.9533 34.3651 37.8683C34.5515 37.7834 34.7151 37.6555 34.8425 37.495C34.9698 37.3346 35.0573 37.1462 35.0977 36.9454L41.8541 3.27541C41.8998 3.04755 41.8833 2.81162 41.8063 2.59234C41.7294 2.37306 41.5949 2.17853 41.4169 2.02914C41.2389 1.87975 41.024 1.781 40.7947 1.74327C40.5654 1.70553 40.3301 1.73018 40.1137 1.81465L1.26366 16.9661C1.03005 17.0573 0.827915 17.2142 0.681799 17.418C0.535683 17.6218 0.451869 17.8636 0.440533 18.1141C0.429197 18.3646 0.490827 18.613 0.617939 18.8291C0.745051 19.0453 0.932179 19.2198 1.1566 19.3317ZM38.8497 5.08841L32.9117 34.6783L22.6467 28.8318C22.3727 28.6765 22.0515 28.626 21.7431 28.6898C21.4346 28.7537 21.1599 28.9275 20.9701 29.1789L18.2333 32.817V25.489L32.9981 12.4077C34.167 11.3735 32.8237 9.53458 31.489 10.3185L11.8222 21.7525L4.92937 18.3181L38.8497 5.08841Z" fill="white"/>
</g>
<defs>
<clipPath id="clip0_24_86">
<rect width="41.44" height="41.44" fill="white" transform="translate(0.440002)"/>
</clipPath>
</defs>
</svg>
