<svg width="46" height="29" viewBox="0 0 46 29" fill="none" xmlns="http://www.w3.org/2000/svg">
<path d="M23.5504 28.1597C30.0314 28.1597 27.7205 24.0567 28.2208 22.877C28.2133 21.9959 28.2058 21.1485 28.2357 20.6333C28.6464 20.749 29.6152 21.2399 31.6162 23.185C34.7055 26.3023 35.4951 28.1597 37.9908 28.1597H42.5846C44.0406 28.1597 44.7985 27.5567 45.1774 27.0509C45.5432 26.5618 45.9016 25.7031 45.5096 24.3666C44.4849 21.1485 38.5079 15.5914 38.1364 15.0053C38.1966 14.8941 38.2607 14.7852 38.3287 14.6786H38.3249C39.5046 13.1199 44.007 6.3738 44.6697 3.6746C44.672 3.66996 44.6733 3.66486 44.6734 3.65967C45.0318 2.42767 44.7033 1.62873 44.3635 1.177C43.8521 0.501268 43.0382 0.159668 41.9388 0.159668H37.3449C35.8068 0.159668 34.6402 0.934334 34.0503 2.3474C33.0629 4.85807 30.289 10.0213 28.2096 11.8487C28.1632 9.8373 28.1676 7.82502 28.2226 5.8138C28.2898 2.94847 28.5064 0.159668 25.5328 0.159668H18.3126C16.4497 0.159668 14.6671 2.19433 16.5972 4.6098C18.2846 6.7266 17.2038 7.90633 17.5678 13.7789C16.1492 12.2575 13.6255 8.149 11.841 2.89807C11.3407 1.47753 10.5828 0.161535 8.44925 0.161535H3.85544C1.99253 0.161535 0.880005 1.177 0.880005 2.87753C0.880005 6.69673 9.33405 28.1597 23.5504 28.1597ZM8.44925 2.96153C8.85432 2.96153 8.89538 2.96154 9.19591 3.8146C11.0234 9.1962 15.1225 17.1594 18.1166 17.1594C20.3659 17.1594 20.3659 14.8541 20.3659 13.9861L20.3641 7.07567C20.2409 4.789 19.4083 3.65033 18.8614 2.95967L25.4096 2.96713C25.4133 2.99887 25.3723 10.6111 25.4283 12.4554C25.4283 15.0743 27.5077 16.5751 30.7538 13.2898C34.1791 9.42394 36.5479 3.64473 36.6431 3.40953C36.7831 3.07353 36.9044 2.95967 37.3449 2.95967H41.9574L41.9537 2.97647C41.5337 4.93647 37.3879 11.1823 36.001 13.1218L35.9375 13.2151C35.3271 14.2119 34.8306 15.3133 36.0215 16.8626C36.1298 16.9933 36.4135 17.2994 36.8241 17.725C38.1009 19.0429 42.4801 23.549 42.8683 25.341C42.6107 25.3821 42.3308 25.3522 37.9908 25.3615C37.0668 25.3615 36.3444 23.9802 33.5874 21.1989C31.1085 18.7871 29.4994 17.8015 28.0341 17.8015C25.1893 17.8015 25.3965 20.1106 25.4227 22.9031C25.432 25.9309 25.4133 24.9733 25.4339 25.1637C25.2677 25.229 24.7917 25.3597 23.5504 25.3597C11.7066 25.3597 3.99357 6.56047 3.69677 2.96713C3.79944 2.9578 5.21249 2.9634 8.44925 2.96153Z" fill="white"/>
</svg>
