<svg width="1283" height="67" viewBox="0 0 1283 67" fill="none" xmlns="http://www.w3.org/2000/svg">
<path d="M0.808399 29.2V4H101.518V29.2L78.0284 25.96V16.78H62.9084V67H39.4184V16.78H24.2984V25.96L0.808399 29.2ZM104.192 39.1V26.95L115.442 28.75V19.3H137.942V32.35L195.992 41.35V67H115.442V40.9L104.192 39.1ZM137.942 55.3H173.492V49.9L137.942 44.5V55.3ZM194.192 31V19.3H227.942V67H205.442V31H194.192ZM272.063 30.1V19.3H362.963V37.3L347.213 43.15L362.963 49V67H283.313V30.1H272.063ZM305.813 56.2H340.463V52.24L330.113 48.55H305.813V56.2ZM305.813 37.75H330.113L340.463 34.15V30.1H305.813V37.75ZM414.285 67V19.3H495.735V67H414.285ZM436.785 55.3H473.235V31H436.785V55.3ZM511.931 67V10.75L569.981 4V0.399999H592.481V13.45L534.431 20.2V26.5H592.481V67H511.931ZM534.431 55.3H569.981V38.2H534.431V55.3ZM600.599 31V19.3H638.849V32.35L696.899 41.35V67H616.349V31H600.599ZM638.849 55.3H674.399V49.9L638.849 44.5V55.3ZM702.288 31V19.3H793.188V43.15L736.038 51.25V55.3H770.688V51.25L793.188 49V67H713.538V31H702.288ZM736.038 39.64L770.688 35.05V31H736.038V39.64ZM801.253 59.26V45.4L812.503 42.79V19.3H835.003V37.75L868.753 30.1V19.3H891.253V38.65L864.703 44.59L877.303 55.3H891.253V67H864.703L844.453 49L835.003 51.25V67H812.503V56.65L801.253 59.26ZM900.281 40V19.3H984.881V40L962.381 37.75V31H953.831V67H931.331V31H922.781V37.75L900.281 40ZM995.681 67V19.3H1018.18V47.2L1054.63 33.16V19.3H1077.13V24.52L1088.38 20.2V34.15L1077.13 38.47V67H1054.63V47.11L1018.18 61.15V67H995.681ZM1093.84 30.1V19.3H1184.74V37.3L1168.99 43.15L1184.74 49V67H1105.09V30.1H1093.84ZM1127.59 56.2H1162.24V52.24L1151.89 48.55H1127.59V56.2ZM1127.59 37.75H1151.89L1162.24 34.15V30.1H1127.59V37.75ZM1191.93 31V19.3H1282.83V43.15L1225.68 51.25V55.3H1260.33V51.25L1282.83 49V67H1203.18V31H1191.93ZM1225.68 39.64L1260.33 35.05V31H1225.68V39.64Z" fill="#E3E5EF"/>
</svg>
